<?xml version="1.0" standalone="no"?>
<!DOCTYPE svg PUBLIC "-//W3C//DTD SVG 20010904//EN"
 "http://www.w3.org/TR/2001/REC-SVG-20010904/DTD/svg10.dtd">
<svg version="1.0" xmlns="http://www.w3.org/2000/svg"
 width="1024.000000pt" height="1024.000000pt" viewBox="0 0 1024.000000 1024.000000"
 preserveAspectRatio="xMidYMid meet">
<metadata>
Created by potrace 1.14, written by Peter Selinger 2001-2017
</metadata>
<g transform="translate(0.000000,1024.000000) scale(0.100000,-0.100000)"
fill="#000000" stroke="none">
<path d="M0 5120 l0 -5120 5120 0 5120 0 0 5120 0 5120 -5120 0 -5120 0 0
-5120z m4027 4465 c3 -9 3 -18 1 -20 -2 -3 -67 -23 -144 -44 -281 -80 -489
-159 -749 -286 -385 -188 -732 -426 -1035 -710 l-85 -79 73 75 c40 41 70 78
67 82 -3 4 -2 5 2 2 10 -8 43 26 36 38 -3 6 -1 7 5 3 7 -4 12 -1 12 9 0 10 -5
13 -12 9 -7 -4 -8 -3 -4 5 4 6 11 9 15 7 4 -3 18 5 32 17 14 12 18 18 9 12
-13 -8 -13 -8 -2 6 7 9 23 15 38 13 19 -2 23 1 14 10 -11 15 9 38 37 42 9 2
21 8 27 15 8 9 8 10 -3 4 -9 -5 -12 -4 -8 2 4 6 18 9 32 7 20 -2 24 1 15 10
-7 10 -6 17 7 27 17 13 17 13 4 -6 -8 -11 2 -3 22 18 22 24 41 36 48 31 7 -4
9 -3 6 3 -8 13 258 189 428 284 302 169 620 299 960 394 140 39 144 40 152 20z
m1498 -321 c704 -71 1339 -295 1895 -666 209 -139 350 -251 507 -401 112 -108
163 -179 163 -229 0 -9 35 -56 78 -105 108 -124 169 -198 155 -189 -7 4 -13 3
-13 -1 0 -5 10 -13 23 -18 12 -6 20 -13 17 -16 -3 -4 6 -16 20 -28 14 -11 19
-20 12 -21 -10 0 -10 -3 0 -14 7 -8 16 -12 20 -10 4 2 9 0 12 -5 4 -5 1 -13
-5 -17 -8 -5 -9 -3 -4 6 5 8 4 11 -3 7 -12 -8 -11 -25 3 -47 5 -8 10 -19 10
-25 1 -5 7 -9 14 -7 8 1 10 -2 5 -10 -5 -7 -9 -19 -10 -26 -4 -21 -12 -26 -49
-27 -29 -1 -35 2 -36 19 0 20 -1 20 -11 -2 -13 -27 -33 -23 -32 6 0 12 -4 19
-8 16 -5 -3 -17 1 -26 9 -9 8 -25 14 -35 14 -15 0 -15 -3 4 -23 12 -13 25 -21
29 -19 5 3 11 -2 14 -11 4 -10 2 -13 -7 -7 -6 4 5 -15 25 -42 21 -28 80 -114
133 -192 88 -132 98 -143 135 -153 23 -6 51 -8 63 -5 13 3 5 -5 -17 -19 -50
-32 -99 -40 -134 -24 -17 8 -62 65 -122 154 -170 254 -278 390 -482 607 -487
519 -1114 886 -1813 1061 -272 69 -494 102 -866 131 -129 11 -199 69 -199 167
0 79 48 145 126 174 44 16 172 13 409 -12z m-790 -15 c11 -18 -1 -21 -112 -36
-713 -89 -1426 -387 -1983 -828 -99 -78 -336 -291 -381 -342 -16 -19 -33 -33
-35 -30 -3 3 45 56 108 119 62 62 113 117 113 123 1 5 6 9 12 8 6 -1 19 7 28
17 10 11 24 20 32 20 7 0 14 5 14 10 1 6 2 16 3 23 0 6 7 12 14 12 7 0 22 11
33 25 12 14 17 18 13 10 -5 -8 6 -4 23 10 17 14 28 28 26 33 -2 4 -1 7 4 6 16
-4 43 13 36 24 -3 5 -2 7 4 4 5 -3 25 9 43 28 19 19 37 35 41 35 5 0 20 11 35
25 15 14 29 23 31 21 2 -2 15 6 28 18 13 11 69 50 126 85 470 292 981 478
1549 565 186 29 187 29 195 15z m150 -419 c10 -16 -32 -27 -130 -35 -49 -3
-155 -18 -235 -31 -622 -104 -1180 -356 -1690 -762 -99 -79 -101 -80 -42 -23
40 39 61 65 56 73 -4 7 -4 10 1 6 11 -10 47 11 40 23 -4 5 -2 8 3 7 5 -2 19 8
31 22 13 14 19 18 16 10 -4 -8 4 -1 19 15 14 17 25 26 26 21 0 -4 8 0 18 11 9
10 15 14 12 8 -3 -6 4 -1 15 11 44 47 276 189 455 279 376 188 774 307 1200
359 143 17 197 19 205 6z m1679 -275 c382 -176 723 -403 1026 -684 57 -53 72
-72 64 -81 -9 -9 -33 8 -100 71 -286 266 -652 507 -1017 669 -83 38 -153 73
-155 79 -8 24 46 8 182 -54z m-4434 51 c0 -2 -8 -10 -17 -17 -16 -13 -17 -12
-4 4 13 16 21 21 21 13z m3420 -210 c1032 -154 1867 -724 2385 -1629 300 -525
453 -1180 416 -1788 -55 -901 -398 -1652 -1037 -2268 -516 -498 -1143 -791
-1869 -873 -235 -26 -619 -14 -870 28 -822 137 -1599 643 -2094 1363 -76 111
-87 135 -45 96 28 -26 61 -34 48 -13 -4 7 2 5 14 -6 21 -19 22 -18 31 5 5 13
11 21 12 17 6 -24 7 -29 8 -35 0 -4 8 2 17 13 8 10 13 13 9 7 -3 -7 -2 -13 3
-13 10 0 25 37 23 55 -2 13 43 -36 154 -171 214 -259 445 -466 728 -652 398
-262 864 -422 1354 -463 150 -13 540 -7 633 9 30 6 89 15 130 21 318 49 636
153 910 299 326 172 643 420 883 690 130 146 140 159 126 168 -8 4 -9 3 -5 -4
4 -8 -3 -16 -19 -22 -18 -7 -25 -15 -21 -25 3 -9 0 -15 -8 -15 -7 0 -21 -9
-30 -19 -10 -11 -26 -18 -35 -16 -10 2 -18 -3 -18 -10 0 -8 4 -12 9 -9 4 3 5
-2 2 -10 -11 -28 -30 -15 -25 16 3 21 -58 -16 -85 -51 -6 -7 -17 -12 -25 -9
-8 3 -35 -8 -62 -24 -26 -15 -55 -28 -63 -28 -22 0 -65 -35 -56 -46 4 -5 0 -3
-8 3 -11 8 -20 9 -30 1 -13 -8 -12 -9 2 -4 12 3 15 1 12 -9 -3 -8 -12 -11 -19
-8 -8 2 -29 -5 -46 -18 -18 -13 -29 -17 -25 -10 6 9 4 10 -10 3 -47 -25 -103
-44 -112 -38 -6 3 -12 1 -14 -5 -3 -8 -27 -12 -64 -11 -58 0 -89 -11 -78 -29
3 -5 -2 -6 -10 -3 -9 3 -16 11 -16 18 -1 6 -8 2 -18 -9 -17 -20 -52 -30 -52
-15 0 4 24 23 53 42 176 117 437 360 579 538 312 391 509 843 583 1337 87 577
-4 1131 -274 1671 -197 393 -535 776 -898 1017 -40 26 -73 52 -73 57 0 5 -4 7
-9 3 -5 -3 -12 -1 -16 5 -9 15 7 12 51 -9 21 -11 42 -17 46 -15 4 3 5 -5 3
-17 -4 -17 -2 -19 10 -9 12 10 15 10 16 -1 0 -12 1 -12 6 0 4 11 7 11 13 0 7
-10 14 -10 34 -1 15 6 26 15 25 19 -3 17 2 24 11 18 8 -5 8 -11 0 -20 -7 -9
-6 -16 4 -24 12 -10 14 -9 9 8 -3 11 3 27 16 40 12 12 21 27 21 34 0 7 -7 4
-15 -7 -8 -11 -18 -16 -22 -11 -5 4 -2 10 5 12 6 3 12 11 12 19 0 8 5 14 10
14 6 0 21 11 33 24 25 28 94 41 89 16 -3 -11 0 -11 12 -1 12 11 21 8 51 -14
19 -15 35 -25 35 -21 0 3 0 9 0 14 0 4 -5 7 -10 7 -6 0 -15 7 -20 15 -5 8 -14
15 -19 15 -6 0 -17 9 -25 20 -15 20 -15 20 -11 -3 2 -13 0 -20 -6 -17 -5 4 -7
11 -3 16 6 10 -55 73 -63 65 -3 -2 -13 4 -23 14 -10 10 -68 48 -129 84 -703
417 -1539 547 -2321 361 -58 -14 -133 -35 -168 -46 -35 -12 -66 -18 -69 -15
-11 10 5 18 34 19 15 0 22 2 16 4 -24 9 -13 24 14 21 19 -2 28 2 28 12 0 9 9
15 22 15 13 0 28 6 34 12 9 9 3 11 -24 9 -22 -2 -38 2 -41 9 -3 9 5 11 30 8
26 -4 34 -1 34 11 0 9 6 17 13 17 6 1 17 2 22 4 6 1 16 3 23 3 7 1 10 7 6 14
-5 7 -2 9 8 5 9 -3 25 3 36 13 11 10 23 16 26 13 3 -4 6 -1 6 6 0 7 4 10 9 7
5 -3 20 3 32 14 13 11 20 20 14 19 -5 -1 -23 0 -40 1 l-30 2 28 8 c44 13 272
50 372 60 136 13 610 4 735 -14z m-3550 -60 c0 -2 -8 -10 -17 -17 -16 -13 -17
-12 -4 4 13 16 21 21 21 13z m2230 -46 c-8 -5 -22 -9 -30 -9 -10 0 -8 3 5 9
27 12 43 12 25 0z m-50 -14 c0 -2 -7 -7 -16 -10 -8 -3 -12 -2 -9 4 6 10 25 14
25 6z m-115 -205 c-38 -16 -74 -26 -80 -22 -5 3 2 7 18 9 15 2 27 8 27 13 0 5
11 9 25 9 14 0 25 5 25 10 0 6 12 10 28 9 20 0 10 -7 -43 -28z m-145 -55 c0
-9 -30 -14 -35 -6 -4 6 3 10 14 10 12 0 21 -2 21 -4z m-1741 -61 c-48 -51 -64
-60 -25 -14 14 17 23 36 20 41 -4 6 -2 8 4 4 6 -3 13 -2 17 4 3 5 11 10 16 10
6 0 -9 -20 -32 -45z m1661 20 c-14 -8 -29 -14 -35 -14 -5 0 1 6 15 14 14 8 30
14 35 14 6 0 -1 -6 -15 -14z m-1730 -98 c0 -2 -12 -14 -27 -28 l-26 -24 19 27
c16 23 34 36 34 25z m1490 -22 c0 -2 -10 -9 -22 -15 -22 -11 -22 -10 -4 4 21
17 26 19 26 11z m-960 -19 c0 -2 -8 -10 -17 -17 -16 -13 -17 -12 -4 4 13 16
21 21 21 13z m-40 -40 c0 -2 -8 -10 -17 -17 -16 -13 -17 -12 -4 4 13 16 21 21
21 13z m4251 -129 c-15 -19 -3 -29 20 -16 18 9 22 7 17 -8 -4 -11 -31 -10 -46
1 -9 6 -9 12 -1 22 6 8 14 14 16 14 3 0 0 -6 -6 -13z m-4911 -1 c0 -2 -8 -10
-17 -17 -16 -13 -17 -12 -4 4 13 16 21 21 21 13z m4560 -122 c0 -2 -9 0 -20 6
-11 6 -20 13 -20 16 0 2 9 0 20 -6 11 -6 20 -13 20 -16z m1475 -86 c371 -478
611 -1007 724 -1598 105 -548 88 -1124 -50 -1662 -11 -46 -25 -89 -31 -95 -19
-24 -27 -2 -13 37 34 97 90 393 117 615 17 146 17 615 0 770 -80 723 -323
1331 -759 1902 -51 68 -93 127 -93 133 0 25 24 2 105 -102z m450 54 c-3 -3
-11 0 -18 7 -9 10 -8 11 6 5 10 -3 15 -9 12 -12z m-3340 -92 c-71 -6 -65 -7
61 -8 77 -1 165 -6 195 -11 30 -5 86 -15 124 -21 435 -72 859 -284 1145 -573
52 -53 98 -93 104 -90 5 3 6 2 3 -4 -3 -5 9 -25 28 -43 19 -19 35 -30 35 -26
0 5 6 3 13 -3 8 -6 16 -9 19 -6 3 3 13 -5 24 -17 10 -12 13 -18 7 -14 -7 4
-13 3 -13 -2 0 -12 25 -33 32 -27 3 3 11 -2 19 -12 8 -9 9 -14 3 -10 -7 4 -14
1 -17 -7 -8 -19 3 -28 18 -16 9 7 17 5 26 -7 13 -17 13 -17 -5 -3 -18 14 -18
14 -6 -7 8 -12 18 -19 22 -17 4 3 35 -37 68 -88 367 -565 466 -1301 259 -1923
-107 -322 -335 -674 -608 -938 -313 -302 -670 -489 -1110 -581 -177 -37 -280
-45 -601 -47 l-295 -2 -107 31 c-508 150 -951 473 -1230 896 -173 263 -288
528 -354 816 -26 115 -29 150 -14 150 6 0 10 -9 10 -21 0 -21 0 -21 20 2 l19
24 1 -22 c0 -36 57 -262 91 -363 46 -138 145 -338 233 -469 356 -531 911 -886
1527 -977 180 -26 478 -15 669 25 362 76 665 220 956 454 159 129 366 365 473
540 152 250 267 578 300 857 14 116 21 301 11 270 -4 -14 -8 -44 -9 -68 -1
-27 -5 -41 -11 -37 -6 4 -8 10 -5 15 3 4 -3 6 -13 3 -12 -3 -23 4 -32 21 -7
14 -17 27 -22 27 -4 1 -13 2 -20 3 -14 1 -17 15 -34 171 -49 461 -164 776
-402 1094 -130 175 -375 396 -562 508 -44 26 -80 52 -80 56 0 5 8 6 18 2 9 -4
31 -8 47 -9 23 -1 29 3 27 17 -2 9 2 17 8 17 7 0 10 6 7 13 -2 6 0 20 5 29 8
16 12 15 53 -8 57 -31 59 -23 3 13 -256 164 -548 268 -870 309 -102 13 -177
15 -323 11 -200 -6 -310 -20 -463 -62 -95 -26 -123 -30 -87 -15 20 9 20 9 -1
9 -11 1 -25 -4 -31 -10 -6 -6 -19 -9 -29 -7 -37 8 40 37 90 34 25 -1 46 1 46
5 0 4 16 10 35 13 19 3 51 9 70 12 19 3 40 12 46 20 6 8 18 14 25 14 8 0 14 4
14 10 0 5 6 7 13 4 8 -3 20 2 27 11 10 13 9 15 -9 16 -11 1 -25 3 -31 4 -5 1
-25 4 -42 5 -25 2 -16 6 37 16 91 18 238 31 345 31 l85 -1 -80 -6z m3290 -32
c5 4 5 2 2 -5 -6 -9 -18 -10 -45 -4 -2 1 0 6 3 11 5 8 11 8 19 1 7 -6 17 -7
21 -3z m-3722 -15 c-7 -2 -19 -2 -25 0 -7 3 -2 5 12 5 14 0 19 -2 13 -5z m-44
-7 c-7 -7 -121 -35 -114 -28 3 4 25 12 48 19 44 12 73 16 66 9z m-132 -52
c-12 -12 -109 -26 -102 -14 9 15 99 39 104 28 1 -5 1 -11 -2 -14z m-157 -39
c-14 -8 -32 -14 -40 -14 -8 0 -1 6 15 14 40 18 57 18 25 0z m-60 -23 c0 -8
-59 -33 -76 -31 -5 0 9 9 31 20 47 22 45 21 45 11z m136 -44 c-12 -7 -21 -7
-28 0 -6 6 0 10 18 10 23 0 24 -2 10 -10z m-99 -39 c-14 -8 -22 -8 -30 0 -8 8
-3 11 19 11 25 -1 27 -2 11 -11z m-222 -8 c-6 -5 -21 -12 -35 -15 l-25 -7 25
15 c28 17 50 21 35 7z m172 -12 c-11 -7 -23 -7 -28 -2 -5 5 3 9 19 11 24 1 25
0 9 -9z m-63 -18 c3 -5 0 -11 -7 -14 -8 -3 -14 1 -14 9 0 16 13 19 21 5z m-73
-46 c-52 -30 -55 -31 -41 -4 7 11 18 18 25 15 8 -3 17 -1 20 4 4 6 14 10 23
10 9 0 -3 -11 -27 -25z m-61 -30 c0 -2 -10 -9 -22 -15 -22 -11 -22 -10 -4 4
21 17 26 19 26 11z m-50 -29 c0 -2 -26 -20 -57 -40 -32 -20 -48 -28 -36 -18
12 11 19 22 16 26 -4 3 2 6 13 6 10 0 28 7 38 15 20 15 26 18 26 11z m-120
-80 c0 -2 -12 -11 -27 -20 l-28 -17 24 20 c23 21 31 25 31 17z m2155 -16 c3
-6 -1 -7 -9 -4 -18 7 -21 14 -7 14 6 0 13 -4 16 -10z m-692 -25 c275 -36 501
-122 747 -283 160 -105 366 -310 473 -472 418 -632 402 -1442 -41 -2050 -367
-503 -996 -785 -1600 -719 -547 60 -1030 377 -1318 865 -176 299 -262 680
-234 1031 42 525 272 952 695 1289 231 184 555 316 855 347 92 10 321 5 423
-8z m-1523 2 c0 -2 -10 -12 -22 -23 l-23 -19 19 23 c18 21 26 27 26 19z m-50
-41 c0 -2 -8 -10 -17 -17 -16 -13 -17 -12 -4 4 13 16 21 21 21 13z m-50 -39
c0 -2 -15 -16 -32 -33 l-33 -29 29 33 c28 30 36 37 36 29z m-110 -100 c0 -2
-15 -16 -32 -33 l-33 -29 29 33 c28 30 36 37 36 29z m5550 -1910 c0 -24 -31
-241 -35 -245 -3 -3 -10 -1 -15 4 -7 7 -7 29 -1 65 6 29 13 82 16 117 5 43 11
62 21 62 8 0 14 -1 14 -3z m-7646 -465 c14 -21 37 -93 56 -172 247 -1040 957
-1938 1920 -2429 279 -142 506 -227 805 -301 291 -72 531 -95 885 -87 135 4
295 13 355 22 860 119 1610 489 2180 1076 439 453 756 999 946 1631 50 168 66
209 92 235 39 41 85 57 166 55 121 -1 220 -78 252 -195 15 -55 8 -96 -42 -257
-320 -1040 -962 -1878 -1869 -2438 -156 -97 -484 -260 -650 -325 -351 -138
-731 -231 -1090 -269 -165 -17 -686 -17 -845 0 -1282 141 -2425 877 -3099
1996 -77 128 -160 283 -215 403 -28 62 -51 114 -51 117 0 2 7 7 16 10 8 3 12
2 9 -3 -3 -5 -1 -12 4 -15 11 -7 22 47 15 71 -5 21 1 8 112 -222 267 -554 654
-1042 1129 -1424 179 -144 535 -378 555 -366 4 3 10 -2 14 -10 9 -24 50 -17
77 12 13 14 17 22 9 18 -13 -8 -13 -6 -1 8 7 9 18 14 24 10 6 -3 7 -1 3 5 -4
7 -2 12 4 12 6 0 9 4 5 9 -3 5 -1 12 5 16 6 4 8 10 5 15 -3 5 0 12 6 16 8 5 9
3 4 -7 -5 -8 7 2 26 22 26 26 42 35 67 35 17 -1 32 0 32 0 0 1 -50 30 -111 63
-144 80 -366 227 -502 334 -667 522 -1133 1228 -1346 2037 -21 80 -45 161 -53
180 -14 33 -13 39 10 89 20 44 23 58 13 73 -11 18 -11 18 19 3 16 -8 41 -32
54 -53z m5616 -1336 c0 -2 -7 -7 -16 -10 -8 -3 -12 -2 -9 4 6 10 25 14 25 6z
m-413 -158 c-3 -8 -6 -5 -6 6 -1 11 2 17 5 13 3 -3 4 -12 1 -19z m-157 -38
c-14 -10 -27 -16 -30 -14 -2 3 6 14 20 24 14 10 27 16 30 14 2 -3 -6 -14 -20
-24z m-50 -25 c-7 -8 -18 -15 -24 -15 -6 0 -2 7 8 15 25 19 32 19 16 0z m-56
-34 c-10 -10 -21 -16 -24 -14 -3 3 4 11 14 19 28 20 33 17 10 -5z m-164 -86
c-7 -8 -20 -15 -29 -15 -11 1 -8 5 9 15 32 18 35 18 20 0z m1085 -310 c19 -18
25 -35 25 -66 0 -50 -9 -59 -190 -189 -693 -496 -1563 -745 -2380 -679 -204
16 -428 54 -459 77 -37 27 -48 74 -27 107 31 47 55 51 189 32 383 -55 789 -51
1142 9 521 88 1042 313 1486 640 139 103 171 113 214 69z"/>
<path d="M2309 8753 c-13 -16 -12 -17 4 -4 9 7 17 15 17 17 0 8 -8 3 -21 -13z"/>
<path d="M5085 9216 c-64 -28 -75 -80 -31 -147 40 -59 68 -69 234 -79 81 -4
149 -6 151 -4 2 2 -8 4 -22 4 -15 0 -28 5 -28 10 -1 6 -3 15 -4 20 -1 6 -3 15
-4 20 0 6 -8 10 -17 10 -9 0 -12 5 -8 12 4 6 3 8 -4 4 -6 -3 -21 4 -33 16 -12
13 -19 16 -15 8 4 -8 -2 -4 -14 10 -12 14 -18 18 -14 10 7 -13 6 -13 -12 0
-37 29 -74 72 -68 81 3 5 -1 9 -8 9 -9 0 -9 3 2 10 8 5 13 10 10 10 -62 8 -90
8 -115 -4z"/>
<path d="M8105 7610 c10 -11 20 -20 23 -20 3 0 -3 9 -13 20 -10 11 -20 20 -23
20 -3 0 3 -9 13 -20z"/>
<path d="M8156 7561 c-3 -5 2 -15 12 -22 15 -12 16 -12 5 2 -7 9 -10 19 -6 22
3 4 4 7 0 7 -3 0 -8 -4 -11 -9z"/>
<path d="M8185 7521 c-6 -10 11 -24 33 -27 10 -2 8 3 -4 17 -20 22 -21 22 -29
10z"/>
<path d="M7041 7544 c6 -7 16 -11 21 -8 11 7 3 17 -18 20 -12 2 -13 -1 -3 -12z"/>
<path d="M7100 7516 c0 -2 8 -10 18 -17 15 -13 16 -12 3 4 -13 16 -21 21 -21
13z"/>
<path d="M7185 7440 c10 -11 20 -20 23 -20 3 0 -3 9 -13 20 -10 11 -20 20 -23
20 -3 0 3 -9 13 -20z"/>
<path d="M7420 7205 c13 -14 26 -25 28 -25 3 0 -5 11 -18 25 -13 14 -26 25
-28 25 -3 0 5 -11 18 -25z"/>
<path d="M7485 7130 c10 -11 20 -20 23 -20 3 0 -3 9 -13 20 -10 11 -20 20 -23
20 -3 0 3 -9 13 -20z"/>
<path d="M7525 7080 c10 -11 20 -20 23 -20 3 0 -3 9 -13 20 -10 11 -20 20 -23
20 -3 0 3 -9 13 -20z"/>
<path d="M7550 7046 c0 -2 8 -10 18 -17 15 -13 16 -12 3 4 -13 16 -21 21 -21
13z"/>
<path d="M7604 6977 c16 -20 30 -37 33 -37 7 0 -36 58 -49 66 -7 4 1 -9 16
-29z"/>
<path d="M7655 6905 c123 -187 231 -391 309 -583 160 -396 237 -845 224 -1302
-4 -136 -3 -158 4 -100 14 113 3 555 -17 680 -56 355 -143 636 -289 930 -71
142 -215 382 -239 397 -7 4 -3 -6 8 -22z"/>
<path d="M6168 6973 c7 -3 16 -2 19 1 4 3 -2 6 -13 5 -11 0 -14 -3 -6 -6z"/>
<path d="M4915 6890 c-326 -33 -660 -178 -907 -394 -204 -178 -337 -353 -447
-586 -199 -424 -223 -913 -66 -1359 211 -603 757 -1052 1385 -1141 187 -27
489 -6 668 46 690 200 1188 776 1273 1474 11 95 5 165 -12 125 -8 -19 -8 -19
-15 3 -4 13 -13 21 -23 20 -11 -2 -17 6 -19 30 -2 19 -9 32 -17 32 -9 0 -12
-8 -10 -21 3 -12 1 -18 -3 -15 -4 4 -7 11 -7 14 0 4 -9 20 -19 35 -13 20 -21
24 -27 16 -11 -18 -29 55 -30 121 0 30 -4 64 -8 75 -4 10 -6 -42 -3 -116 13
-392 -88 -729 -307 -1020 -98 -130 -311 -337 -311 -301 0 4 23 25 50 46 28 21
85 76 128 121 341 365 484 855 391 1343 -59 307 -191 554 -419 782 -221 221
-448 344 -763 412 -85 18 -135 22 -301 22 -109 1 -181 4 -160 8 71 13 336 9
421 -7 344 -60 614 -202 857 -449 58 -59 68 -67 37 -29 -40 49 -67 77 -185
187 -26 25 -45 47 -42 47 3 1 10 2 15 3 21 3 22 15 2 25 -13 7 -18 17 -14 28
4 10 2 14 -4 10 -15 -9 -22 13 -13 38 5 13 2 27 -10 40 -23 27 -32 75 -14 82
24 9 6 22 -104 77 -152 76 -355 139 -527 165 -103 15 -336 21 -440 11z m1090
-349 c3 -5 2 -12 -3 -15 -5 -3 -9 1 -9 9 0 17 3 19 12 6z m-1985 -354 c0 -2
-10 -12 -22 -23 l-23 -19 19 23 c18 21 26 27 26 19z m-60 -71 c0 -2 -8 -10
-17 -17 -16 -13 -17 -12 -4 4 13 16 21 21 21 13z m-95 -130 c-167 -261 -245
-563 -232 -901 8 -204 35 -334 108 -522 48 -122 47 -151 -1 -36 -89 213 -120
354 -127 578 -9 260 33 472 136 691 45 94 134 244 146 244 2 0 -11 -24 -30
-54z m-46 -1601 c0 -5 -6 1 -14 15 -8 14 -14 30 -14 35 0 6 6 -1 14 -15 8 -14
14 -29 14 -35z m2156 -491 c-72 -59 -395 -218 -411 -201 -2 2 29 17 68 32 121
47 169 72 263 134 93 61 133 79 80 35z m-465 -221 c-118 -38 -244 -55 -400
-55 -85 0 -175 4 -200 9 -32 7 5 8 127 5 182 -5 296 5 419 38 82 22 118 24 54
3z m-707 -20 c-7 -2 -19 -2 -25 0 -7 3 -2 5 12 5 14 0 19 -2 13 -5z m54 -9
c-3 -3 -12 -4 -19 -1 -8 3 -5 6 6 6 11 1 17 -2 13 -5z"/>
<path d="M5986 6618 c3 -5 10 -6 15 -3 13 9 11 12 -6 12 -8 0 -12 -4 -9 -9z"/>
<path d="M6290 6116 c0 -2 7 -9 15 -16 13 -11 14 -10 9 4 -5 14 -24 23 -24 12z"/>
<path d="M6340 6050 c12 -16 24 -30 26 -30 3 0 -4 14 -16 30 -12 17 -24 30
-26 30 -3 0 4 -13 16 -30z"/>
<path d="M6580 5554 c0 -18 33 -144 37 -141 5 5 -23 136 -31 144 -3 4 -6 2 -6
-3z"/>
<path d="M6705 5150 c3 -5 8 -10 11 -10 2 0 4 5 4 10 0 6 -5 10 -11 10 -5 0
-7 -4 -4 -10z"/>
<path d="M8905 4253 c-11 -3 -34 -16 -52 -29 -27 -20 -37 -41 -63 -127 -92
-301 -172 -515 -286 -754 -34 -73 -58 -135 -53 -138 5 -4 9 -3 9 1 0 4 6 0 13
-11 8 -10 19 -15 25 -11 7 4 12 3 12 -3 0 -5 19 -9 43 -8 23 0 47 -2 53 -5 5
-4 27 -3 47 2 29 6 37 5 37 -6 0 -37 36 10 84 110 116 240 196 450 267 701 41
145 42 175 11 223 -25 39 -100 67 -147 55z"/>
</g>
</svg>
